<svg width="92" height="92" viewBox="0 0 92 92" fill="none" xmlns="http://www.w3.org/2000/svg">
<g filter="url(#filter0_d)">
<circle cx="46" cy="42" r="42" fill="#8FD02A"/>
</g>
<path d="M55.2175 22.2484C55.5542 21.9232 56.0908 21.9326 56.4161 22.2693C56.7333 22.5978 56.7333 23.1185 56.4161 23.4469L38.369 41.4956L56.4177 59.5426C56.7544 59.8679 56.7637 60.4044 56.4385 60.7412C56.1133 61.0778 55.5768 61.0871 55.24 60.762C55.2329 60.7551 55.226 60.7482 55.2192 60.7412L36.5721 42.094C36.2412 41.7631 36.2412 41.2265 36.5721 40.8955L55.2175 22.2484Z" fill="#F44336"/>
<path d="M55.8181 60.9905C56.2862 60.9914 56.6664 60.6125 56.6672 60.1444C56.6676 59.9187 56.578 59.7022 56.4182 59.5428L38.3695 41.4957L56.4182 23.4488C56.7496 23.1173 56.7496 22.58 56.4182 22.2486C56.0868 21.9171 55.5494 21.9171 55.218 22.2486L36.5709 40.8957C36.24 41.2267 36.24 41.7632 36.5709 42.0942L55.218 60.7413C55.3769 60.9008 55.5929 60.9905 55.8181 60.9905Z" fill="white"/>
<defs>
<filter id="filter0_d" x="0" y="0" width="92" height="92" filterUnits="userSpaceOnUse" color-interpolation-filters="sRGB">
<feFlood flood-opacity="0" result="BackgroundImageFix"/>
<feColorMatrix in="SourceAlpha" type="matrix" values="0 0 0 0 0 0 0 0 0 0 0 0 0 0 0 0 0 0 127 0"/>
<feOffset dy="4"/>
<feGaussianBlur stdDeviation="2"/>
<feColorMatrix type="matrix" values="0 0 0 0 0.8375 0 0 0 0 0.8375 0 0 0 0 0.8375 0 0 0 0.25 0"/>
<feBlend mode="normal" in2="BackgroundImageFix" result="effect1_dropShadow"/>
<feBlend mode="normal" in="SourceGraphic" in2="effect1_dropShadow" result="shape"/>
</filter>
</defs>
</svg>
