<svg width="69" height="69" viewBox="0 0 69 69" fill="none" xmlns="http://www.w3.org/2000/svg"><g filter="url(#filter0_d)"><circle cx="34.5" cy="30.5" r="30.5" fill="#364c63" fill-opacity=".78"/></g><path d="M27.4001 13.2167C27.1065 12.9332 26.6387 12.9413 26.3552 13.2349 26.0786 13.5212 26.0786 13.9752 26.3552 14.2615L42.0885 29.9963 26.3537 45.7296C26.0602 46.0131 26.0521 46.4809 26.3356 46.7745 26.6191 47.068 27.0869 47.0761 27.3805 46.7926 27.3866 46.7867 27.3926 46.7806 27.3986 46.7745L43.6551 30.518C43.9435 30.2295 43.9435 29.7617 43.6551 29.4731L27.4001 13.2167z" fill="#f44336"/><path d="M26.8765 46.9917C26.4684 46.9925 26.137 46.6622 26.1362 46.2541 26.1359 46.0573 26.214 45.8686 26.3533 45.7296L42.0881 29.9963 26.3533 14.263C26.0644 13.9741 26.0644 13.5057 26.3533 13.2167 26.6423 12.9278 27.1107 12.9278 27.3997 13.2167L43.6561 29.4732C43.9446 29.7617 43.9446 30.2295 43.6561 30.5181L27.3997 46.7745C27.2611 46.9135 27.0728 46.9917 26.8765 46.9917z" fill="#fff"/><defs><filter id="filter0_d" x="0" y="0" width="69" height="69" filterUnits="userSpaceOnUse" color-interpolation-filters="sRGB"><feFlood flood-opacity="0" result="BackgroundImageFix"/><feColorMatrix in="SourceAlpha" type="matrix" values="0 0 0 0 0 0 0 0 0 0 0 0 0 0 0 0 0 0 127 0"/><feOffset dy="4"/><feGaussianBlur stdDeviation="2"/><feColorMatrix type="matrix" values="0 0 0 0 0.8375 0 0 0 0 0.8375 0 0 0 0 0.8375 0 0 0 0.25 0"/><feBlend mode="normal" in2="BackgroundImageFix" result="effect1_dropShadow"/><feBlend mode="normal" in="SourceGraphic" in2="effect1_dropShadow" result="shape"/></filter></defs></svg>