<svg width="22" height="22" viewBox="0 0 22 22" fill="none" xmlns="http://www.w3.org/2000/svg"><path d="M21.9838 4.7395C21.9838 4.71436 22.0011 4.68989 21.9999 4.66504L15.2863 11.134 21.9919 17.3963C21.9958 17.3516 21.9838 17.3065 21.9838 17.2608V4.7395z" fill="#364c63"/><path d="M14.2614 12.1289 11.5207 14.7658C11.382 14.8992 11.2029 14.9661 11.0237 14.9661 10.8482 14.9661 10.6727 14.9021 10.535 14.7737L7.80174 12.2268 1.05235 18.7324C1.21646 18.7914 1.39262 18.8372 1.57709 18.8372H20.4704C20.7443 18.8372 21.0013 18.7538 21.2246 18.6293L14.2614 12.1289z" fill="#364c63"/><path d="M11.0159 13.2624 21.2618 3.39256C21.0298 3.25463 20.7598 3.16211 20.4704 3.16211H1.5771C1.20022 3.16211.854881 3.30844.585915 3.53163L11.0159 13.2624z" fill="#364c63"/><path d="M0 4.97998V17.2607C0 17.4017.0324021 17.5376.0675761 17.6675L6.73324 11.2486.0 4.97998z" fill="#364c63"/></svg>