<svg class="icon-btn__params-dis" width="24" height="24" viewBox="0 0 24 24" fill="none" xmlns="http://www.w3.org/2000/svg">
<path d="M15.7147 12.0001L23.8531 3.86145C24.0485 3.66608 24.0485 3.34938 23.8531 3.154L20.8464 0.146593C20.7526 0.0527835 20.625 0 20.4927 0C20.3601 0 20.2328 0.0527835 20.139 0.146593L12.0001 8.28551L3.86114 0.146593C3.67352 -0.0410261 3.3413 -0.0410261 3.15369 0.146593L0.146775 3.154C-0.0485994 3.34938 -0.0485994 3.66608 0.146775 3.86145L8.28545 12.0001L0.146775 20.1388C-0.0485994 20.3342 -0.0485994 20.6509 0.146775 20.8462L3.15369 23.8534C3.2475 23.9472 3.37483 24 3.50741 24C3.63999 24 3.76733 23.9472 3.86114 23.8534L12.0001 15.7145L20.139 23.8534C20.2328 23.9472 20.3601 24 20.4927 24C20.625 24 20.7526 23.9472 20.8464 23.8534L23.8533 20.8462C24.0487 20.6509 24.0487 20.3339 23.8533 20.1388L15.7147 12.0001Z" />
</svg>
