<svg class="icon-btn__params" width="70" height="78" viewBox="0 0 70 78" fill="none" xmlns="http://www.w3.org/2000/svg"><path d="M68.527 37.0057 65.4231 35.6707V33.5482C65.4665 20.5211 57.247 8.8984 44.9504 4.59964V1.60816C44.9504.720714 44.2302.0 43.3422.0H26.1336C25.2462.0 24.5254.720714 24.5254 1.60816V4.61593C12.2293 8.91469 4.00927 20.5373 4.05272 33.564V35.7033L.980866 37.0057C.385612 37.2566.0 37.8405.0 38.4851v8.4433C0 47.8164.72017 48.5371 1.60816 48.5371H3.69861V51.7534C3.69861 52.6409 4.41933 53.3616 5.30678 53.3616H11.0806C11.6286 55.3749 12.4346 57.3111 13.4769 59.1191L9.39154 63.2039C8.76805 63.8312 8.76805 64.8447 9.39154 65.472L16.2272 72.3071C16.8539 72.9311 17.8674 72.9311 18.4947 72.3071L22.5795 68.2218C24.3826 69.264 26.3123 70.0683 28.3213 70.618V76.3918C28.3213 77.2793 29.0414 78 29.9294 78H39.5784C40.4664 78 41.1871 77.2793 41.1871 76.3918V70.618C43.2004 70.07 45.1367 69.2656 46.9447 68.2218L51.0294 72.3071C51.6567 72.9311 52.6702 72.9311 53.297 72.3071L60.1321 65.472C60.7561 64.8447 60.7561 63.8312 60.1321 63.2039L56.0473 59.1191C57.0895 57.3117 57.895 55.3749 58.4435 53.3616H64.2174C65.1048 53.3616 65.8255 52.6409 65.8255 51.7534V48.5371H67.916C68.804 48.5371 69.5241 47.8164 69.5241 46.9284V38.4851C69.5214 37.8356 69.1271 37.2517 68.527 37.0057zM27.7097 3.23262H41.734V30.1065H27.7423L27.7097 3.23262zM62.625 50.1453H57.2693C56.4975 50.1273 55.8235 50.6612 55.6611 51.4156 55.1191 53.934 54.1225 56.3319 52.718 58.4919 52.3047 59.1273 52.3932 59.9653 52.9271 60.5025L56.7713 64.3461 52.1716 68.9137 48.328 65.0695C47.7909 64.5356 46.9528 64.4471 46.3174 64.8604 44.1574 66.2644 41.7596 67.2615 39.2411 67.8036 38.4868 67.966 37.9529 68.64 37.9708 69.4117V74.832H31.5376V69.3639C31.5555 68.5916 31.0216 67.9182 30.2673 67.7558 27.7488 67.2154 25.3504 66.2182 23.191 64.8126 22.5556 64.3993 21.7175 64.4873 21.1804 65.0217L17.3368 68.8653 12.7855 64.314 16.6291 60.4704C17.163 59.9333 17.2515 59.0953 16.8382 58.4598 15.4217 56.3129 14.4083 53.9264 13.8473 51.4156 13.6843 50.6612 13.0109 50.1273 12.2386 50.1453H6.88344V48.5371H21.5828C22.4638 55.8029 29.0691 60.9782 36.3349 60.0957 42.3885 59.3603 47.1603 54.5907 47.8935 48.5371H62.6092L62.625 50.1453zM24.8633 48.5371H44.6609C43.7761 54.0084 38.6236 57.7266 33.1523 56.8419 28.8839 56.1521 25.5373 52.8049 24.8475 48.5371H24.8633zM66.3241 45.3202H3.20003V39.5469L6.30393 38.2119C6.89919 37.961 7.28534 37.3772 7.28534 36.7325V33.5162C7.25004 22.284 14.0879 12.1745 24.5254 8.02507V31.7147C24.5254 32.6021 25.2462 33.3228 26.1336 33.3228H43.3742C44.2617 33.3228 44.9824 32.6021 44.9824 31.7147V8.02507C55.4379 12.1728 62.2839 22.3014 62.2388 33.5482V36.7645C62.2388 37.4098 62.625 37.9936 63.2202 38.244L66.3241 39.579V45.3202z" /></svg>