<svg width="66" height="66" viewBox="0 0 66 66" fill="none" xmlns="http://www.w3.org/2000/svg"><g filter="url(#filter0_d)"><circle r="28.828" transform="matrix(-1 0 0 1 32.8282 28.828)" fill="#8fd02a"/></g><g clip-path="url(#clip0)"><path d="M26.5013 15.2712C26.2702 15.048 25.9018 15.0544 25.6786 15.2855 25.4609 15.511 25.4609 15.8684 25.6786 16.0938L38.0658 28.4821 25.6775 40.8693C25.4464 41.0925 25.44 41.4608 25.6632 41.6919 25.8864 41.923 26.2547 41.9294 26.4858 41.7062 26.4907 41.7015 26.4954 41.6968 26.5001 41.6919L39.2992 28.8929C39.5263 28.6657 39.5263 28.2974 39.2992 28.0702L26.5013 15.2712z"/><path d="M26.0895 41.8629C25.7682 41.8635 25.5073 41.6035 25.5067 41.2822 25.5064 41.1273 25.5679 40.9786 25.6776 40.8692L38.0659 28.4821 25.6776 16.095C25.4501 15.8675 25.4501 15.4987 25.6776 15.2712 25.9051 15.0437 26.2739 15.0437 26.5014 15.2712L39.3004 28.0702C39.5275 28.2974 39.5275 28.6657 39.3004 28.8929L26.5014 41.6919C26.3923 41.8013 26.2441 41.8629 26.0895 41.8629z" fill="#fff"/></g><defs><filter id="filter0_d" x="244141e-9" y="0" width="65.656" height="65.656" filterUnits="userSpaceOnUse" color-interpolation-filters="sRGB"><feFlood flood-opacity="0" result="BackgroundImageFix"/><feColorMatrix in="SourceAlpha" type="matrix" values="0 0 0 0 0 0 0 0 0 0 0 0 0 0 0 0 0 0 127 0"/><feOffset dy="4"/><feGaussianBlur stdDeviation="2"/><feColorMatrix type="matrix" values="0 0 0 0 0.8375 0 0 0 0 0.8375 0 0 0 0 0.8375 0 0 0 0.25 0"/><feBlend mode="normal" in2="BackgroundImageFix" result="effect1_dropShadow"/><feBlend mode="normal" in="SourceGraphic" in2="effect1_dropShadow" result="shape"/></filter><clipPath id="clip0"><path d="M0 0h26.7689v26.7689H0z" fill="#fff" transform="translate(19.1006 15.1006)"/></clipPath></defs></svg>