<svg width="72" height="72" viewBox="0 0 72 72" fill="none" xmlns="http://www.w3.org/2000/svg"><path d="M24.9615 59.625H47.25v-4.5H4.5v4.5h8.7885C13.879 58.5992 14.7293 57.7471 15.754 57.1546 16.7787 56.5621 17.9414 56.2501 19.125 56.2501 20.3086 56.2501 21.4713 56.5621 22.496 57.1546 23.5207 57.7471 24.371 58.5992 24.9615 59.625z" fill="#8fd02a"/><path d="M21.375 34.875H20.25v2.25h1.125C21.6734 37.125 21.9595 37.0065 22.1705 36.7955 22.3815 36.5845 22.5 36.2984 22.5 36 22.5 35.7016 22.3815 35.4155 22.1705 35.2045 21.9595 34.9935 21.6734 34.875 21.375 34.875z" fill="#8fd02a"/><path d="M4.5 61.875V63C4.5 63.2984 4.61853 63.5845 4.82951 63.7955 5.04048 64.0065 5.32663 64.125 5.625 64.125h6.8512C12.3412 63.3811 12.3412 62.6189 12.4762 61.875H4.5z" fill="#8fd02a"/><path d="M58.5 67.5C60.9853 67.5 63 65.4853 63 63 63 60.5147 60.9853 58.5 58.5 58.5 56.0147 58.5 54 60.5147 54 63 54 65.4853 56.0147 67.5 58.5 67.5z" fill="#8fd02a"/><path d="M64.3365 59.625H67.5v-9H55.125C54.2299 50.625 53.3715 50.2694 52.7385 49.6365 52.1056 49.0035 51.75 48.1451 51.75 47.25V39.375H49.5v20.25H52.6635C53.254 58.5992 54.1043 57.7471 55.129 57.1546 56.1537 56.5621 57.3164 56.2501 58.5 56.2501 59.6836 56.2501 60.8463 56.5621 61.871 57.1546 62.8957 57.7471 63.746 58.5992 64.3365 59.625z" fill="#8fd02a"/><path d="M25.7739 61.875C25.909 62.6189 25.909 63.3811 25.7739 64.125H51.8514C51.7164 63.3811 51.7164 62.6189 51.8514 61.875H25.7739z" fill="#8fd02a"/><path d="M19.125 67.5C21.6103 67.5 23.625 65.4853 23.625 63 23.625 60.5147 21.6103 58.5 19.125 58.5 16.6397 58.5 14.625 60.5147 14.625 63 14.625 65.4853 16.6397 67.5 19.125 67.5z" fill="#8fd02a"/><path d="M47.25 30.375H4.5v15.75H47.25V30.375zm-31.5 4.5H12.375v2.25h2.25C14.9234 37.125 15.2095 37.2435 15.4205 37.4545 15.6315 37.6655 15.75 37.9516 15.75 38.25 15.75 38.5484 15.6315 38.8345 15.4205 39.0455 15.2095 39.2565 14.9234 39.375 14.625 39.375h-2.25V42.75C12.375 43.0484 12.2565 43.3345 12.0455 43.5455 11.8345 43.7565 11.5484 43.875 11.25 43.875 10.9516 43.875 10.6655 43.7565 10.4545 43.5455 10.2435 43.3345 10.125 43.0484 10.125 42.75V34.875C10.125 34.2783 10.3621 33.706 10.784 33.284 11.206 32.8621 11.7783 32.625 12.375 32.625H15.75C16.0484 32.625 16.3345 32.7435 16.5455 32.9545 16.7565 33.1655 16.875 33.4516 16.875 33.75 16.875 34.0484 16.7565 34.3345 16.5455 34.5455 16.3345 34.7565 16.0484 34.875 15.75 34.875zM24.525 42.075C24.704 42.3137 24.7809 42.6137 24.7387 42.9091 24.6965 43.2045 24.5387 43.471 24.3 43.65 24.0613 43.829 23.7613 43.9059 23.4659 43.8637 23.1705 43.8215 22.904 43.6637 22.725 43.425L20.25 40.1254V42.75C20.25 43.0484 20.1315 43.3345 19.9205 43.5455 19.7095 43.7565 19.4234 43.875 19.125 43.875 18.8266 43.875 18.5405 43.7565 18.3295 43.5455 18.1185 43.3345 18 43.0484 18 42.75v-9C18 33.4516 18.1185 33.1655 18.3295 32.9545 18.5405 32.7435 18.8266 32.625 19.125 32.625h2.25C22.1813 32.6234 22.9614 32.9113 23.5734 33.4364 24.1854 33.9614 24.5885 34.6887 24.7095 35.4859 24.8305 36.2831 24.6613 37.0973 24.2327 37.7802 23.804 38.4632 23.1445 38.9696 22.374 39.2074L24.525 42.075zM31.5 37.125C31.7984 37.125 32.0845 37.2435 32.2955 37.4545 32.5065 37.6655 32.625 37.9516 32.625 38.25 32.625 38.5484 32.5065 38.8345 32.2955 39.0455 32.0845 39.2565 31.7984 39.375 31.5 39.375H29.25v2.25h3.375C32.9234 41.625 33.2095 41.7435 33.4205 41.9545 33.6315 42.1655 33.75 42.4516 33.75 42.75 33.75 43.0484 33.6315 43.3345 33.4205 43.5455 33.2095 43.7565 32.9234 43.875 32.625 43.875H29.25C28.6533 43.875 28.081 43.6379 27.659 43.216 27.2371 42.794 27 42.2217 27 41.625v-6.75C27 34.2783 27.2371 33.706 27.659 33.284 28.081 32.8621 28.6533 32.625 29.25 32.625h3.375C32.9234 32.625 33.2095 32.7435 33.4205 32.9545 33.6315 33.1655 33.75 33.4516 33.75 33.75 33.75 34.0484 33.6315 34.3345 33.4205 34.5455 33.2095 34.7565 32.9234 34.875 32.625 34.875H29.25v2.25H31.5zm7.875.0C39.6734 37.125 39.9595 37.2435 40.1705 37.4545 40.3815 37.6655 40.5 37.9516 40.5 38.25 40.5 38.5484 40.3815 38.8345 40.1705 39.0455 39.9595 39.2565 39.6734 39.375 39.375 39.375h-2.25v2.25H40.5C40.7984 41.625 41.0845 41.7435 41.2955 41.9545 41.5065 42.1655 41.625 42.4516 41.625 42.75 41.625 43.0484 41.5065 43.3345 41.2955 43.5455 41.0845 43.7565 40.7984 43.875 40.5 43.875H37.125C36.5283 43.875 35.956 43.6379 35.534 43.216 35.1121 42.794 34.875 42.2217 34.875 41.625v-6.75C34.875 34.2783 35.1121 33.706 35.534 33.284 35.956 32.8621 36.5283 32.625 37.125 32.625H40.5C40.7984 32.625 41.0845 32.7435 41.2955 32.9545 41.5065 33.1655 41.625 33.4516 41.625 33.75 41.625 34.0484 41.5065 34.3345 41.2955 34.5455 41.0845 34.7565 40.7984 34.875 40.5 34.875H37.125v2.25h2.25z" fill="#8fd02a"/><path d="M47.25 24.75C47.25 24.4516 47.1315 24.1655 46.9205 23.9545 46.7095 23.7435 46.4234 23.625 46.125 23.625H5.625C5.32663 23.625 5.04048 23.7435 4.82951 23.9545 4.61853 24.1655 4.5 24.4516 4.5 24.75v3.375H47.25V24.75z" fill="#8fd02a"/><path d="M66.3752 64.125C66.6736 64.125 66.9597 64.0065 67.1707 63.7955 67.3817 63.5845 67.5002 63.2984 67.5002 63V61.875H65.1489C65.284 62.6189 65.284 63.3811 65.1489 64.125H66.3752z" fill="#8fd02a"/><path d="M55.125 48.375H67.4336C67.1544 45.9016 65.9749 43.6174 64.1199 41.9576 62.2649 40.2979 59.8641 39.3786 57.375 39.375H54V47.25C54 47.5484 54.1185 47.8345 54.3295 48.0455 54.5405 48.2565 54.8266 48.375 55.125 48.375z" fill="#8fd02a"/><path d="M4.5 48.375H47.25v4.5H4.5v-4.5z" fill="#8fd02a"/></svg>