<svg width="68" height="68" viewBox="0 0 68 68" fill="none" xmlns="http://www.w3.org/2000/svg">
<g clip-path="url(#clip0)">
<path d="M60.5846 7.08539C47.0462 6.69944 38.0525 2.07331 35.0798 0.298009C34.4143 -0.099499 33.5862 -0.099499 32.9207 0.298009L60.5846 7.08539ZM60.5846 7.08539C61.6383 7.11541 62.5096 7.91693 62.6165 8.96575L60.5846 7.08539ZM34.3106 1.58579L34.3107 1.58584C37.4351 3.45169 46.6779 8.18955 60.5418 8.58478C60.8508 8.59358 61.0945 8.82643 61.1242 9.11786L61.1242 9.11799C61.5705 13.492 62.2857 25.0959 59.1226 36.9973C55.9667 48.8716 49.01 60.8654 34.2161 66.4606L34.216 66.4606C34.0774 66.513 33.9231 66.5131 33.7843 66.4606C18.9904 60.8654 12.0337 48.8716 8.87778 36.9973C5.71469 25.0958 6.42987 13.492 6.8761 9.11799L6.87611 9.11787C6.90581 8.82649 7.14947 8.59359 7.45858 8.58478L7.45862 8.58478C21.3224 8.18955 30.5652 3.45169 33.6897 1.58585L33.6898 1.58579C33.8816 1.47124 34.1188 1.47124 34.3106 1.58579Z" fill="#8FD02A" stroke="#8FD02A" stroke-width="3"/>
<path d="M33.9998 47.0292C41.9508 47.0292 48.3964 40.5836 48.3964 32.6326C48.3964 24.6816 41.9508 18.2361 33.9998 18.2361C26.0488 18.2361 19.6033 24.6816 19.6033 32.6326C19.6033 40.5836 26.0488 47.0292 33.9998 47.0292Z" fill="white" stroke="white" stroke-width="2"/>
<path d="M32.0628 34.22L31.695 33.8646L29.6675 31.9051C28.9997 31.2597 27.9359 31.2781 27.2907 31.9456L32.0628 34.22ZM32.0628 34.22L32.4099 33.8442M32.0628 34.22L32.4099 33.8442M32.4099 33.8442L38.266 27.5015L38.266 27.5015M32.4099 33.8442L38.266 27.5015M38.266 27.5015C38.8956 26.8194 39.959 26.777 40.641 27.4067C41.323 28.0364 41.3654 29.0999 40.7358 29.7817L40.7357 29.7818M38.266 27.5015L40.7357 29.7818M40.7357 29.7818L33.3661 37.7639L33.3661 37.764M40.7357 29.7818L33.3661 37.764M33.3661 37.764C33.0592 38.0964 32.6313 38.291 32.179 38.3039L32.1771 38.304M33.3661 37.764L32.1771 38.304M32.1771 38.304C32.163 38.3044 32.1478 38.3046 32.1312 38.3046C31.696 38.3046 31.277 38.1357 30.9632 37.8324M32.1771 38.304L30.9632 37.8324M30.9632 37.8324C30.9632 37.8324 30.9632 37.8324 30.9632 37.8324M30.9632 37.8324L30.9632 37.8324M30.9632 37.8324L27.3313 34.3222L30.9632 37.8324ZM27.3313 34.3222C26.6639 33.6771 26.6458 32.613 27.2907 31.9456L27.3313 34.3222Z" fill="#8FD02A" stroke="#8FD02A"/>
</g>
<defs>
<clipPath id="clip0">
<rect width="68" height="68" fill="white"/>
</clipPath>
</defs>
</svg>
