<svg width="64" height="64" viewBox="0 0 64 64" fill="none" xmlns="http://www.w3.org/2000/svg">
<path d="M56.1327 53.1212C60.8 47.8053 63.5401 41.1882 64 34.1284H58.318V29.8713H63.9997C63.54 22.8114 60.7998 16.1943 56.1324 10.8771L52.3505 14.6603L49.3393 11.6491L53.1212 7.86722C47.8054 3.19999 41.1883 0.459748 34.1285 0V5.34848H29.8713V0C22.8114 0.459748 16.1943 3.19999 10.8786 7.86747L14.8959 11.8848L11.8847 14.8961L7.86734 10.8773C3.19999 16.1943 0.459748 22.8114 0 29.8713H5.68198V34.1285H0C0.459748 41.1883 3.19999 47.8054 7.86734 53.1213L11.8847 49.1039L14.8959 52.1152L10.8786 56.1325C16.1944 60.7984 22.8115 63.54 29.8714 63.9999V58.3179H34.1286V63.9997C41.1885 63.54 47.8056 60.7998 53.1228 56.1324L49.1041 52.115L52.1153 49.1038L56.1327 53.1212ZM45.5178 48.2001L29.9379 32.8969L29.8711 16.3961L34.1284 16.3791L34.188 31.1033L48.5007 45.1633L45.5178 48.2001Z" fill="#8FD02A"/>
</svg>
