<svg width="76" height="76" viewBox="0 0 76 76" fill="none" xmlns="http://www.w3.org/2000/svg"><g clip-path="url(#clip0)"><path d="M37.9996 47.2467C50.4316 47.2467 60.5097 37.1686 60.5097 24.7366 60.5097 12.3047 50.4316 2.22656 37.9996 2.22656 25.5677 2.22656 15.4896 12.3047 15.4896 24.7366 15.4896 37.1686 25.5677 47.2467 37.9996 47.2467z" fill="#8fd02a"/><path d="M38.0002 2.22632V47.2466C50.4322 47.2466 60.5103 37.1684 60.5103 24.7365 60.5103 12.3046 50.4322 2.22632 38.0002 2.22632z" fill="#8fd02a"/><path d="M62.7366 24.7366C62.7366 11.0968 51.6398.0 38 0 24.3604.0 13.2636 11.0968 13.2636 24.7366 13.2636 36.0128 20.8481 45.5504 31.1833 48.5174V57.154H23.2437L37.9984 76.0002 52.753 57.154H44.8134V48.5185C55.1505 45.5525 62.7366 36.014 62.7366 24.7366zM17.7163 24.7366C17.7163 13.552 26.8157 4.45273 38 4.45273 49.1846 4.45273 58.2839 13.552 58.2839 24.7366 58.2839 35.9209 49.1846 45.0203 38 45.0203 26.8157 45.0203 17.7163 35.9211 17.7163 24.7366z" fill="#8fd02a"/><path d="M62.7368 24.7366C62.7368 11.0968 51.64.0 38.0002.0V4.45273c11.1845.0 20.2838 9.09927 20.2838 20.28387C58.284 35.9209 49.1847 45.0203 38.0002 45.0203V75.9978L52.753 57.1538H44.8135V48.5183C55.1507 45.5525 62.7368 36.014 62.7368 24.7366z" fill="#8fd02a"/><path d="M40.9017 22.3449H36.233C35.2095 22.3449 34.377 21.5124 34.377 20.4889 34.377 19.4653 35.2096 18.6327 36.233 18.6327H44.1153V14.1799H40.2218V11.2931H35.7691V14.1988C32.5064 14.4373 29.9243 17.1664 29.9243 20.4889 29.9243 23.9676 32.7544 26.7977 36.233 26.7977H40.9017C42.0164 26.7977 42.9231 27.7044 42.9231 28.819 42.9231 29.9337 42.0164 30.8404 40.9017 30.8404H30.8415v4.4528H35.7691V38.18h4.4527V35.2932H40.9017C44.4716 35.2932 47.3758 32.389 47.3758 28.819 47.3758 25.2491 44.4715 22.3449 40.9017 22.3449z" fill="#fff"/></g><defs><clipPath id="clip0"><path d="M0 0h76v76H0z" fill="#fff"/></clipPath></defs></svg>