<svg width="67" height="67" viewBox="0 0 67 67" fill="none" xmlns="http://www.w3.org/2000/svg">
<path d="M38.5114 46.5043C38.3407 47.5491 38.0696 48.5583 37.7043 49.5235L40.982 52.4935C40.5224 53.4608 39.999 54.3904 39.395 55.2635L35.1865 53.9067C34.5228 54.7181 33.7795 55.4603 32.9682 56.124L34.3249 60.3325C33.4518 60.9365 32.5222 61.4589 31.5549 61.9195L28.5849 58.6418C27.6197 59.0071 26.6116 59.2782 25.5657 59.4489L24.6309 63.7788C24.1022 63.8206 23.5714 63.8594 23.0312 63.8594C22.4911 63.8594 21.9603 63.8206 21.4306 63.7788L20.4957 59.4489C19.4509 59.2782 18.4418 59.0071 17.4765 58.6418L14.5065 61.9195C13.5392 61.4599 12.6096 60.9365 11.7365 60.3325L13.0933 56.124C12.2819 55.4603 11.5397 54.717 10.876 53.9067L6.66755 55.2635C6.0635 54.3904 5.54111 53.4608 5.08048 52.4935L8.35825 49.5235C7.99289 48.5583 7.72175 47.5501 7.55111 46.5043L3.22123 45.5694C3.17936 45.0397 3.14062 44.5089 3.14062 43.9688C3.14062 43.4286 3.17936 42.8978 3.22123 42.3681L7.55111 41.4332C7.72175 40.3884 7.99289 39.3793 8.35825 38.414L5.08048 35.444C5.54006 34.4767 6.0635 33.5471 6.66755 32.674L10.876 34.0308C11.5397 33.2194 12.283 32.4772 13.0943 31.8135L11.7376 27.605C12.6107 27.001 13.5403 26.4786 14.5076 26.018L17.4776 29.2957C18.4428 28.9304 19.4509 28.6592 20.4968 28.4886L21.4316 24.1587C21.9603 24.1169 22.4911 24.0781 23.0312 24.0781C23.5714 24.0781 24.1022 24.1169 24.6319 24.1587L25.5668 28.4886C26.6116 28.6592 27.6208 28.9304 28.586 29.2957L31.556 26.018C32.5233 26.4776 33.4529 27.001 34.326 27.605L32.9692 31.8135C33.7806 32.4772 34.5228 33.2205 35.1865 34.0318L39.395 32.6751C39.999 33.5482 40.5214 34.4778 40.982 35.4451L37.7043 38.4151C38.0696 39.3803 38.3407 40.3884 38.5114 41.4343L42.8413 42.3691C42.8831 42.8978 42.9219 43.4286 42.9219 43.9688C42.9219 44.5089 42.8831 45.0397 42.8413 45.5694L38.5114 46.5043ZM23.0312 33.5C17.2494 33.5 12.5625 38.1869 12.5625 43.9688C12.5625 49.7506 17.2494 54.4375 23.0312 54.4375C28.8131 54.4375 33.5 49.7506 33.5 43.9688C33.5 38.1869 28.8131 33.5 23.0312 33.5Z" fill="#8FD02A"/>
<path d="M53.0336 17.0693C52.8703 17.6105 52.6568 18.1298 52.394 18.6187L54.047 21.7865C53.489 22.4921 52.8525 23.1286 52.1469 23.6866L48.9791 22.0336C48.4902 22.2974 47.971 22.511 47.4297 22.6732L46.3577 26.086C45.9159 26.1384 45.47 26.1719 45.0156 26.1719C44.5613 26.1719 44.1153 26.1384 43.6746 26.0871L42.6026 22.6743C42.0613 22.512 41.5421 22.2974 41.0532 22.0346L37.8854 23.6876C37.1798 23.1297 36.5433 22.4932 35.9853 21.7876L37.6383 18.6197C37.3745 18.1308 37.1609 17.6116 36.9987 17.0703L33.5858 15.9983C33.5335 15.5566 33.5 15.1106 33.5 14.6562C33.5 14.2019 33.5335 13.7559 33.5848 13.3152L36.9976 12.2432C37.1599 11.702 37.3745 11.1827 37.6372 10.6938L35.9842 7.52598C36.5422 6.82039 37.1787 6.18389 37.8843 5.62591L41.0522 7.27892C41.541 7.01511 42.0603 6.80155 42.6015 6.63928L43.6735 3.22647C44.1153 3.17413 44.5613 3.14062 45.0156 3.14062C45.47 3.14062 45.9159 3.17413 46.3567 3.22542L47.4287 6.63823C47.9699 6.8005 48.4892 7.01511 48.978 7.27787L52.1459 5.62486C52.8515 6.18284 53.488 6.81934 54.046 7.52494L52.393 10.6928C52.6568 11.1817 52.8703 11.7009 53.0326 12.2422L56.4454 13.3142C56.4977 13.7559 56.5312 14.2019 56.5312 14.6562C56.5312 15.1106 56.4977 15.5566 56.4465 15.9973L53.0336 17.0693ZM45.0156 10.4688C42.7031 10.4688 40.8281 12.3437 40.8281 14.6562C40.8281 16.9688 42.7031 18.8438 45.0156 18.8438C47.3282 18.8438 49.2031 16.9688 49.2031 14.6562C49.2031 12.3437 47.3282 10.4688 45.0156 10.4688Z" fill="#8FD02A"/>
<path d="M61.4924 40.6931C61.3312 41.2741 61.104 41.8248 60.813 42.3388L61.8546 44.5309C61.3814 45.135 60.8381 45.6783 60.234 46.1515L58.0419 45.1098C57.5289 45.4009 56.9772 45.628 56.3962 45.7893L55.5817 48.0798C55.2059 48.1259 54.8259 48.1562 54.4375 48.1562C54.0491 48.1562 53.6691 48.1259 53.2933 48.0798L52.4788 45.7893C51.8978 45.628 51.3471 45.4009 50.8331 45.1098L48.641 46.1515C48.0369 45.6783 47.4936 45.135 47.0204 44.5309L48.062 42.3388C47.771 41.8258 47.5438 41.2741 47.3826 40.6941L45.092 39.8797C45.046 39.5028 45.0156 39.1228 45.0156 38.7344C45.0156 38.346 45.046 37.966 45.092 37.5901L47.3826 36.7757C47.5438 36.1947 47.771 35.644 48.062 35.131L47.0204 32.9389C47.4936 32.3348 48.0369 31.7915 48.641 31.3183L50.8331 32.36C51.3461 32.0689 51.8978 31.8417 52.4788 31.6805L53.2933 29.39C53.6691 29.3429 54.0491 29.3125 54.4375 29.3125C54.8259 29.3125 55.2059 29.3429 55.5817 29.3889L56.3962 31.6795C56.9772 31.8407 57.5279 32.0679 58.0419 32.3589L60.234 31.3173C60.8381 31.7905 61.3814 32.3338 61.8546 32.9378L60.813 35.13C61.104 35.643 61.3312 36.1947 61.4924 36.7757L63.783 37.5901C63.829 37.966 63.8594 38.346 63.8594 38.7344C63.8594 39.1228 63.829 39.5028 63.783 39.8786L61.4924 40.6931ZM54.4375 35.5938C52.7028 35.5938 51.2969 36.9997 51.2969 38.7344C51.2969 40.469 52.7028 41.875 54.4375 41.875C56.1722 41.875 57.5781 40.469 57.5781 38.7344C57.5781 36.9997 56.1722 35.5938 54.4375 35.5938Z" fill="#8FD02A"/>
<path d="M64.0638 5.25536L57.8024 4.0033L56.5504 10.2636L58.6033 10.675L59.1675 7.85684C60.182 9.96734 60.718 12.2935 60.718 14.6563C60.718 18.2659 59.5266 21.6599 57.2737 24.4708L58.9079 25.7804C61.4256 22.6387 62.8117 18.6889 62.8117 14.6563C62.8117 11.9145 62.1784 9.2115 60.9734 6.77228L63.6534 7.30828L64.0638 5.25536Z" fill="#8FD02A"/>
<path d="M24.8183 13.9161L23.338 15.3964L24.7607 16.8191C24.1849 16.7825 23.6081 16.75 23.0312 16.75C14.9326 16.75 7.30928 20.3209 2.11678 26.5477L3.72478 27.8888C8.51842 22.1404 15.5545 18.8438 23.0312 18.8438C23.5641 18.8438 24.0959 18.8741 24.6277 18.9076L23.338 20.1974L24.8183 21.6777L28.699 17.7969L24.8183 13.9161Z" fill="#8FD02A"/>
</svg>
