<svg width="75" height="75" viewBox="0 0 75 75" fill="none" xmlns="http://www.w3.org/2000/svg"><g clip-path="url(#clip0)"><path d="M38.0483 1.83733 42.6459.100037C43.1587-.0937615 43.7359-.00235557 44.1636.340417L47.999 3.4135C48.2937 3.64963 48.6644 3.77019 49.0416 3.75232L53.951 3.52073C54.4988 3.49495 55.0192 3.76023 55.3202 4.21843L58.0185 8.32627C58.2257 8.64195 58.5411 8.87105 58.9054 8.97066L63.6461 10.2673C64.1749 10.4121 64.588 10.825 64.7326 11.3538L66.0292 16.0945C66.1288 16.4588 66.3579 16.7741 66.6736 16.9814L70.7815 19.6796C71.2397 19.9807 71.5049 20.5011 71.4792 21.0488L71.2476 25.9582C71.2298 26.3356 71.3503 26.7062 71.5864 27.0009L74.6595 30.8366C75.0022 31.2645 75.0936 31.8415 74.8998 32.3543L73.1625 36.9518C73.0291 37.305 73.0291 37.6948 73.1625 38.0481L74.8998 42.6457C75.0936 43.1585 75.0022 43.7357 74.6595 44.1634L71.5864 47.9991C71.3503 48.2938 71.2297 48.6645 71.2476 49.0417L71.4792 53.9511C71.5049 54.4988 71.2397 55.0193 70.7815 55.3203L66.6736 58.0186C66.3579 58.2258 66.1288 58.5412 66.0292 58.9055L64.7326 63.6462C64.5878 64.175 64.1749 64.5881 63.6461 64.7327L58.9054 66.0293C58.5411 66.1289 58.2257 66.358 58.0185 66.6737L55.3202 70.7815C55.0192 71.2397 54.4988 71.505 53.951 71.4792L49.0416 71.2477C48.6646 71.2299 48.2937 71.3503 47.999 71.5865L44.1633 74.6596C43.7354 75.0023 43.1584 75.0937 42.6456 74.8999L38.048 73.1626C37.6949 73.0292 37.3051 73.0292 36.9518 73.1626L32.3542 74.8999C31.8414 75.0937 31.2642 75.0023 30.8365 74.6596L27.0008 71.5865C26.7061 71.3503 26.3353 71.2298 25.9581 71.2477L21.0487 71.4792C20.501 71.505 19.9806 71.2397 19.6796 70.7815L16.9813 66.6737C16.774 66.358 16.4587 66.1289 16.0944 66.0293L11.3537 64.7327C10.8249 64.5879 10.4118 64.175 10.2672 63.6462L8.97056 58.9055C8.87095 58.5412 8.64185 58.2258 8.32618 58.0186L4.21834 55.3202C3.76014 55.0192 3.49485 54.4987 3.52063 53.951L3.75223 49.0416C3.7701 48.6644 3.64954 48.2936 3.41341 47.9989L.340911 44.163C-.00186121 43.7351-.0932671 43.1581.100531 42.6452L1.83783 38.0477C1.97128 37.6945 1.97128 37.3047 1.83783 36.9514L.100531 32.3539C-.0932671 31.841-.00186121 31.2639.340911 30.8361L3.41399 27.0008C3.65013 26.706 3.77068 26.3353 3.75281 25.9581L3.52122 21.0487C3.49544 20.501 3.76072 19.9805 4.21892 19.6795l4.10785-2.6982C8.64244 16.774 8.87154 16.4586 8.97115 16.0943L10.2678 11.3537C10.4126 10.8248 10.8255 10.4118 11.3543 10.2672L16.0949 8.97051C16.4593 8.8709 16.7746 8.6418 16.9819 8.32613L19.6801 4.21828C19.9812 3.76008 20.5016 3.4948 21.0493 3.52058L25.9587 3.75217C26.3359 3.77004 26.7067 3.64949 27.0014 3.41335L30.8371.34027C31.265-.00250208 31.842-.093908 32.3548.0998901L36.9523 1.83719C37.3052 1.97078 37.6952 1.97078 38.0483 1.83733z" fill="#8fd02a"/><path d="M28.3965 53.105H20.5939C19.8757 53.105 19.2935 52.5227 19.2935 51.8045V30.9976C19.2935 30.2794 19.8757 29.6971 20.5939 29.6971H28.3965C29.1148 29.6971 29.697 30.2794 29.697 30.9976V51.8045C29.697 52.5228 29.1148 53.105 28.3965 53.105z" fill="#fff"/><path d="M56.9951 32.6129C56.8258 30.9208 55.276 29.6971 53.5754 29.6971H42.5056C45.5329 27.2463 47.5883 23.9586 47.8859 21.2548 48.1065 19.2499 46.7201 17.3454 44.7032 17.3267 42.8946 17.31 41.4224 18.7564 41.4224 20.561 41.4224 21.7319 38.8812 25.2065 34.1187 26.7525 34.1117 26.7548 34.1049 26.757 34.0979 26.7594 32.9839 27.1279 32.2973 28.2547 32.2973 29.428V50.5038C32.2973 51.222 32.8796 51.8043 33.5978 51.8043H50.3709C51.6665 51.8043 52.8673 50.9188 53.0753 49.64 53.3403 48.0105 52.0896 46.6025 50.5101 46.6025H51.6716C52.9671 46.6025 54.168 45.717 54.376 44.4382 54.641 42.8087 53.3903 41.4007 51.8107 41.4007H52.9722C54.2677 41.4007 55.4686 40.5152 55.6766 39.2364 55.9416 37.6069 54.6909 36.1989 53.1114 36.1989H53.7616C55.6671 36.1994 57.1899 34.559 56.9951 32.6129z" fill="#fff"/><path d="M24.495 49.8534C25.5723 49.8534 26.4456 48.9801 26.4456 47.9028 26.4456 46.8256 25.5723 45.9523 24.495 45.9523 23.4177 45.9523 22.5444 46.8256 22.5444 47.9028 22.5444 48.9801 23.4177 49.8534 24.495 49.8534z" fill="#8fd02a"/></g><defs><clipPath id="clip0"><path d="M0 0h75v75H0z" fill="#fff"/></clipPath></defs></svg>