<?xml version="1.0" standalone="no"?>
<!DOCTYPE svg PUBLIC "-//W3C//DTD SVG 20010904//EN"
 "http://www.w3.org/TR/2001/REC-SVG-20010904/DTD/svg10.dtd">
<svg version="1.0" xmlns="http://www.w3.org/2000/svg"
 width="1248.000000pt" height="1248.000000pt" viewBox="0 0 1248.000000 1248.000000"
 preserveAspectRatio="xMidYMid meet">
<metadata>
Created by potrace 1.11, written by Peter Selinger 2001-2013
</metadata>
<g transform="translate(0.000000,1248.000000) scale(0.100000,-0.100000)"
fill="#000000" stroke="none">
<path d="M8985 10546 c-11 -6 -22 -13 -25 -16 -3 -3 -25 -16 -50 -29 -25 -14
-85 -49 -135 -78 -49 -29 -95 -53 -102 -53 -7 0 -13 -4 -13 -9 0 -5 -8 -11
-17 -15 -10 -3 -31 -14 -48 -24 -16 -10 -50 -30 -75 -44 -60 -33 -151 -86
-170 -98 -8 -5 -37 -21 -65 -36 -27 -14 -57 -32 -65 -38 -8 -6 -33 -21 -55
-33 -22 -11 -56 -30 -75 -42 -19 -11 -60 -34 -90 -51 -30 -17 -80 -45 -111
-63 -31 -17 -158 -90 -283 -162 -125 -71 -248 -143 -274 -158 -26 -15 -56 -32
-67 -38 -11 -5 -29 -15 -40 -22 -11 -7 -99 -57 -195 -111 -96 -55 -191 -110
-211 -123 -19 -12 -40 -23 -47 -23 -7 0 -12 -4 -12 -10 0 -5 -6 -10 -14 -10
-8 0 -22 -7 -30 -16 -9 -8 -16 -12 -16 -8 0 4 -8 1 -17 -7 -17 -13 -31 -21
-85 -51 -13 -7 -39 -22 -58 -34 -41 -24 -183 -105 -255 -145 -50 -27 -51 -27
-75 -8 -14 10 -29 19 -33 19 -5 0 -21 8 -35 18 -15 11 -52 32 -82 49 -131 71
-245 138 -248 145 -2 5 -8 8 -12 8 -5 0 -31 13 -58 29 -26 15 -70 41 -98 56
-107 59 -350 198 -374 213 -14 9 -28 15 -32 14 -5 -1 -8 3 -8 9 0 5 -4 8 -9 5
-5 -4 -11 -2 -13 2 -1 5 -34 26 -73 48 -38 21 -83 47 -100 57 -16 10 -38 20
-47 23 -10 4 -18 10 -18 15 0 5 -4 9 -9 9 -6 0 -36 15 -68 34 -32 19 -62 35
-68 36 -5 1 -17 7 -25 14 -13 12 -41 28 -155 90 -11 6 -22 13 -25 16 -9 9 -84
51 -112 63 -16 6 -28 15 -28 19 0 4 -4 8 -10 8 -5 0 -63 32 -129 70 -66 39
-125 70 -131 70 -5 0 -10 5 -10 10 0 6 -4 10 -9 10 -5 0 -65 32 -133 71 -67
40 -148 85 -178 102 -30 16 -59 33 -65 37 -5 4 -28 18 -50 30 -22 12 -95 53
-161 91 -67 38 -126 69 -130 69 -5 0 -9 -713 -8 -1584 l0 -1584 -30 -16 c-45
-22 -130 -70 -136 -76 -3 -3 -20 -13 -38 -22 -17 -10 -47 -26 -64 -35 -18 -10
-35 -21 -36 -25 -2 -5 -8 -8 -13 -8 -4 0 -43 -20 -85 -45 -41 -25 -79 -45 -84
-45 -4 0 -13 -7 -20 -15 -7 -8 -21 -15 -30 -15 -10 0 -20 -4 -22 -8 -1 -4
-100 -64 -218 -132 -118 -68 -233 -134 -255 -146 -22 -13 -53 -30 -70 -39 -16
-9 -51 -28 -77 -43 -68 -40 -562 -323 -606 -348 -20 -11 -121 -69 -224 -128
-103 -59 -190 -107 -194 -106 -4 1 -10 -3 -13 -8 -3 -5 -29 -23 -57 -38 -97
-54 -299 -169 -319 -181 -11 -7 -35 -20 -52 -29 -18 -10 -33 -21 -33 -25 0 -4
-13 -10 -29 -14 -16 -3 -35 -13 -42 -21 -6 -8 -18 -14 -25 -14 -8 0 -14 -3
-14 -7 0 -5 -19 -17 -43 -27 -23 -11 -49 -25 -57 -32 -8 -6 -37 -24 -65 -38
-27 -15 -57 -31 -65 -36 -71 -45 -261 -150 -269 -150 -6 0 -11 -4 -11 -9 0 -5
-10 -13 -22 -17 -13 -4 -25 -9 -28 -13 -5 -6 -56 -35 -97 -55 l-23 -11 0
-1582 0 -1583 35 20 c19 11 50 28 67 39 18 10 73 41 123 69 50 28 95 56 102
62 7 5 15 10 19 10 3 0 44 23 91 50 47 28 89 50 94 50 5 0 9 5 9 10 0 6 4 10
10 10 5 0 53 25 107 57 54 31 118 67 143 81 25 14 57 34 73 44 15 11 27 16 27
13 0 -3 13 3 29 14 16 12 34 21 39 21 6 0 12 4 14 8 2 5 15 15 30 23 80 42
206 115 227 130 13 11 27 16 32 13 5 -3 9 -2 9 3 0 4 21 19 47 33 27 13 50 27
53 30 3 3 23 15 45 27 22 11 56 30 75 41 128 74 215 122 222 122 4 0 8 3 8 8
0 4 15 13 33 21 17 8 34 17 37 21 5 7 14 12 121 69 35 18 65 37 67 42 2 5 7 9
12 9 5 0 163 88 352 197 189 108 351 198 360 201 10 2 18 8 18 11 0 4 19 17
43 30 23 12 49 26 57 31 18 12 520 298 600 342 30 17 67 39 82 49 14 11 28 19
30 19 7 0 251 140 266 152 6 6 12 7 12 2 0 -5 4 -4 8 2 4 6 34 26 67 44 116
64 130 73 160 94 17 11 32 20 35 20 3 -1 22 10 42 22 21 13 39 24 41 24 4 0
39 20 232 132 28 16 61 34 75 41 14 6 27 14 30 18 3 3 30 19 60 36 30 16 73
40 95 53 22 13 65 36 95 53 30 16 62 36 71 43 8 8 18 14 21 14 3 0 59 31 124
68 66 38 124 71 129 73 6 2 53 30 107 62 53 31 101 57 106 57 6 0 12 4 14 8 2
5 39 28 83 53 44 24 89 49 100 56 11 7 27 15 35 19 8 4 42 24 75 44 33 19 81
47 108 60 26 14 47 29 47 33 0 5 5 5 10 2 6 -3 10 -3 10 2 0 4 24 19 53 33 28
14 54 28 57 31 3 3 40 26 84 50 43 24 94 53 115 65 20 11 58 33 84 48 l48 27
57 -33 c31 -18 75 -43 97 -56 22 -12 48 -25 58 -29 9 -3 17 -9 17 -14 0 -5 6
-9 13 -9 6 0 23 -9 37 -20 14 -11 33 -20 43 -20 9 0 17 -4 17 -8 0 -5 24 -21
53 -36 28 -15 66 -36 82 -47 17 -10 37 -22 45 -26 8 -4 52 -28 97 -55 45 -26
86 -48 92 -48 6 0 11 -4 11 -8 0 -4 12 -13 28 -19 15 -7 34 -17 42 -22 20 -14
231 -135 250 -144 8 -4 33 -18 55 -32 22 -14 47 -28 55 -32 8 -4 42 -23 75
-43 33 -20 75 -43 93 -51 17 -7 32 -17 32 -21 0 -5 4 -8 10 -8 5 0 33 -14 62
-32 97 -57 173 -99 191 -105 9 -3 17 -9 17 -14 0 -5 7 -9 15 -9 8 0 15 -4 15
-10 0 -5 5 -10 10 -10 14 0 174 -92 178 -102 2 -4 12 -8 22 -8 10 0 21 -4 25
-9 3 -6 18 -16 33 -24 30 -15 73 -40 142 -81 25 -15 53 -29 63 -33 9 -3 17 -9
17 -14 0 -5 5 -9 11 -9 6 0 38 -16 70 -36 32 -19 60 -34 63 -32 2 2 12 -4 22
-12 11 -8 30 -21 44 -29 14 -8 125 -72 248 -143 123 -70 228 -128 233 -128 5
0 9 -4 9 -10 0 -5 4 -10 10 -10 5 0 80 -41 166 -90 85 -50 159 -90 164 -90 4
0 10 -3 12 -7 2 -5 19 -16 38 -27 46 -24 517 -294 550 -314 14 -9 25 -14 25
-12 0 3 21 -10 47 -28 26 -18 51 -32 57 -32 5 0 16 -6 23 -13 7 -7 24 -18 38
-24 42 -21 109 -60 125 -73 8 -7 15 -9 15 -4 0 5 4 4 8 -1 6 -10 110 -71 237
-140 28 -16 62 -36 77 -46 14 -11 30 -19 36 -19 5 0 15 -7 22 -15 7 -8 16 -12
21 -9 5 3 9 2 9 -3 0 -4 10 -13 23 -19 33 -15 111 -58 117 -64 5 -5 15 -11 89
-52 20 -11 65 -37 101 -58 36 -21 81 -47 101 -58 75 -41 84 -47 89 -52 3 -3
19 -12 35 -21 58 -29 120 -64 125 -69 3 -3 14 -10 25 -16 29 -15 288 -164 343
-197 26 -15 58 -32 72 -38 13 -6 27 -13 30 -17 3 -4 16 -13 30 -19 27 -13 50
-27 205 -116 55 -32 107 -62 115 -66 35 -18 65 -36 70 -41 3 -3 16 -11 30 -18
14 -7 44 -23 68 -36 l42 -24 0 1578 c0 1250 -3 1580 -12 1587 -7 6 -33 22 -58
35 -25 14 -65 37 -90 52 -25 14 -61 34 -80 44 -19 9 -37 19 -40 23 -5 6 -141
84 -230 132 -30 17 -72 41 -92 54 -21 13 -39 23 -42 23 -2 0 -34 18 -70 40
-36 22 -70 40 -75 40 -5 0 -11 3 -13 8 -3 7 -66 43 -115 66 -13 6 -23 14 -23
19 0 4 -4 7 -9 7 -5 0 -64 32 -131 70 -67 39 -126 70 -131 70 -5 0 -9 5 -9 10
0 6 -4 10 -9 10 -5 0 -95 50 -201 110 -106 61 -195 110 -198 110 -3 0 -13 6
-21 14 -9 7 -41 26 -71 42 -30 16 -57 31 -60 34 -3 3 -23 14 -45 25 -22 11
-42 23 -45 26 -5 5 -56 34 -160 92 -30 16 -63 37 -72 45 -10 8 -18 11 -18 7 0
-4 -8 -1 -17 7 -10 9 -34 24 -53 33 -19 10 -37 21 -40 24 -3 3 -18 13 -35 21
-26 13 -70 38 -235 133 -19 11 -55 31 -80 45 -25 14 -86 49 -137 78 -50 30
-96 54 -101 54 -6 0 -12 4 -14 8 -1 5 -39 28 -83 52 -44 24 -82 46 -85 49 -3
3 -21 14 -40 23 -38 18 -92 50 -100 58 -3 3 -21 13 -40 23 -19 9 -62 33 -95
53 -33 19 -68 38 -77 41 -10 3 -18 10 -18 15 0 5 -4 6 -10 3 -5 -3 -10 -3 -10
2 0 4 -20 19 -45 32 -28 15 -42 28 -37 35 8 11 9 3142 1 3150 -2 2 -13 -1 -24
-8z"/>
</g>
</svg>
